# xmcd
#
# Track frame offsets: 
#        150
#        22152
#        38022
#        53000
#        79203
#        102640
#        124202
#        140954
#        163223
#        182670
#        196142
#        213839
#        230483
#
# Disc length: 3435 seconds
#
# Revision: 0
# Processed by: cddbd v1.5.2PL0 Copyright (c) Steve Scherf et al.
# Submitted via: ExactAudioCopy v1.0b3
#
DISCID=bc0d690d
DTITLE=גל דה פז - בלוז לחלום
DYEAR=1900
DGENRE=
TTITLE0=בלוז לחלום
TTITLE1=מעיניי
TTITLE2=נערה של קאנטרי
TTITLE3=שמש שקרנית
TTITLE4=תחתית הבקבוק
TTITLE5=כלואה בצריח
TTITLE6=קובי שלי
TTITLE7=מצוקה כלכלית
TTITLE8=ניקול מתפוררת
TTITLE9=קשת
TTITLE10=לואיזיאנה
TTITLE11=בקצה השפיות
TTITLE12=בלדה על חוסר בטחון
EXTD=
EXTT0=
EXTT1=
EXTT2=
EXTT3=
EXTT4=
EXTT5=
EXTT6=
EXTT7=
EXTT8=
EXTT9=
EXTT10=
EXTT11=
EXTT12=
PLAYORDER=
